Coordinates
version=1
nRows=26
nColumns=24
inDegrees=yes

Units are S.I. units (second, meters, Newtons, ...)
Angles are in degrees.

endheader
time	pelvis_tilt	pelvis_list	pelvis_rotation	pelvis_tx	pelvis_ty	pelvis_tz	hip_flexion_r	hip_adduction_r	hip_rotation_r	knee_angle_r	ankle_angle_r	subtalar_angle_r	mtp_angle_r	hip_flexion_l	hip_adduction_l	hip_rotation_l	knee_angle_l	ankle_angle_l	subtalar_angle_l	mtp_angle_l	lumbar_extension	lumbar_bending	lumbar_rotation
      0.54200000	     -0.96808680	      1.65253887	      8.18048280	     -0.75658471	      0.89315590	      0.29580222	     25.88862895	     -1.81546327	    -11.20936586	     -3.29894184	      4.64876420	      1.01017120	      8.02127439	    -17.11123498	      1.50097991	      6.34796909	     -7.82235879	     14.93529572	      0.79218507	      7.61349210	     -7.47418242	     -2.76478327	     -9.92816992
      0.54616667	     -1.00270430	      1.63794731	      8.24793462	     -0.75081629	      0.89213291	      0.29606322	     26.02179317	     -1.75186860	    -10.89129470	     -3.78850179	      4.67411364	      0.80586307	      7.99781375	    -17.13323768	      1.41019883	      6.37709807	     -8.50640629	     15.07116060	      0.92553060	      7.68886833	     -7.43384657	     -2.68534266	     -9.90570001
      0.55033333	     -1.03895473	      1.60813918	      8.29882900	     -0.74499996	      0.89112127	      0.29635834	     26.16586432	     -1.66440818	    -10.55803804	     -4.36665345	      4.64410400	      0.50817329	      7.98412825	    -17.12152613	      1.30286706	      6.29614955	     -9.26272110	     15.19131616	      1.18595069	      7.80197123	     -7.36728376	     -2.58097650	     -9.85788593
      0.55450000	     -1.02798177	      1.52643629	      8.35035720	     -0.73909198	      0.89021365	      0.29668499	     26.23928886	     -1.51092984	    -10.27250448	     -4.96162118	      4.49803238	      0.14642955	      7.98150092	    -17.10876060	      1.11653180	      6.03683947	    -10.11409995	     15.30595855	      1.70264746	      8.15987923	     -7.34288275	     -2.40544528	     -9.77770149
      0.55866667	     -1.07075269	      1.49970557	      8.37805545	     -0.73321807	      0.88925654	      0.29701686	     26.42382285	     -1.42032469	     -9.94361810	     -5.73357850	      4.42285436	     -0.21493131	      7.99520733	    -17.07663958	      1.02652854	      6.01943209	    -10.89603870	     15.32622303	      1.81076376	      8.31367081	     -7.27403665	     -2.30959026	     -9.72132433
      0.56283333	     -1.04516467	      1.39094532	      8.40591952	     -0.72721409	      0.88842325	      0.29739674	     26.48965269	     -1.22263857	     -9.64721782	     -6.44609992	      4.17654990	     -0.70986197	      8.07774802	    -17.05050979	      0.80865465	      5.70559602	    -11.80786446	     15.38555936	      2.34449604	      8.94169918	     -7.24600328	     -2.09705234	     -9.59133210
      0.56700000	     -1.08074090	      1.33593355	      8.41658524	     -0.72123495	      0.88753989	      0.29777097	     26.67675484	     -1.09372005	     -9.36627038	     -7.32208631	      3.96036288	     -1.13566875	      8.69630028	    -16.97972414	      0.68187549	      5.57148739	    -12.67292170	     15.27171028	      2.49245573	     12.71708465	     -7.15878037	     -1.96503625	     -9.55656703
      0.57116667	     -1.10640028	      1.27826298	      8.41118933	     -0.71522164	      0.88670711	      0.29816812	     26.85636443	     -0.95068132	     -9.05845899	     -8.23887391	      3.74119039	     -1.63290848	      8.69990248	    -16.91726672	      0.56346378	      5.49329944	    -13.55449095	     15.14322480	      2.58333165	     12.76391460	     -7.08689867	     -1.82665094	     -9.40827807
      0.57533333	     -1.13109572	      1.20179290	      8.39810028	     -0.70915832	      0.88590866	      0.29859044	     27.03205875	     -0.78208413	     -8.76519297	     -9.16991707	      3.43110826	     -2.17609126	      8.71323165	    -16.82231623	      0.41772041	      5.31751273	    -14.50074643	     14.99494535	      2.79583279	     12.86132933	     -6.99290304	     -1.66337236	     -9.26025192
      0.57950000	     -1.14560827	      1.11213390	      8.37521524	     -0.70306021	      0.88516399	      0.29904502	     27.20249720	     -0.59309868	     -8.48717907	    -10.12999796	      3.08182680	     -2.73412082	      8.73625360	    -16.71317920	      0.25501851	      5.10902998	    -15.49362656	     14.81690145	      3.03013296	     13.01185234	     -6.91607575	     -1.48248146	     -9.10378124
      0.58366667	     -1.16206036	      1.02264763	      8.34358150	     -0.69692829	      0.88445830	      0.29951086	     27.38024238	     -0.40342645	     -8.22946019	    -11.11866655	      2.70963714	     -3.28316710	      8.76720689	    -16.58012471	      0.09576544	      4.89586435	    -16.52726852	     14.57394400	      3.23788657	     13.21495451	     -6.82327893	     -1.30014886	     -8.94113745
      0.58783333	     -1.08192231	      0.86008700	      8.29543698	     -0.69067607	      0.88393349	      0.30002752	     27.42031773	     -0.10985455	     -7.98689285	    -12.03922720	      2.25313693	     -3.91609833	      8.95115290	    -16.52347757	     -0.17898666	      4.49585147	    -17.59629490	     14.30637284	      3.70801191	     14.38119724	     -6.82217503	     -0.99411584	     -8.71827245
      0.59200000	     -1.15560566	      0.82453943	      8.25697388	     -0.68458453	      0.88324291	      0.30047131	     27.70264693	      0.00350480	     -7.76809341	    -13.15188370	      1.93717601	     -4.33563019	      8.97469779	    -16.29121429	     -0.24508909	      4.43602944	    -18.69954217	     13.91865937	      3.61074524	     14.59320766	     -6.68241452	     -0.89394212	     -8.60438388
      0.59616667	     -1.18087360	      0.74710467	      8.20054505	     -0.67839669	      0.88267092	      0.30095966	     27.91588858	      0.17746741	     -7.56015935	    -14.23544990	      1.60229498	     -4.77713408	      8.99952766	    -16.08909906	     -0.37507781	      4.25460323	    -19.82945513	     13.45321049	      3.67022214	     14.85791756	     -6.57907117	     -0.72477442	     -8.43171402
      0.60033333	     -1.14901940	      0.63142710	      8.14795304	     -0.67217131	      0.88223061	      0.30146656	     28.04145341	      0.39942802	     -7.38326803	    -15.26329400	      1.21953260	     -5.26736893	      9.54189725	    -15.89697477	     -0.57690687	      3.95475321	    -21.02932744	     12.94706254	      3.77607636	     20.86318439	     -6.53581059	     -0.48939497	     -8.29685515
      0.60450000	     -1.17024666	      0.56081871	      8.07797934	     -0.66595577	      0.88176509	      0.30197085	     28.25824866	      0.56177583	     -7.21532642	    -16.38858635	      0.99006829	     -5.58588513	      9.53300037	    -15.64944097	     -0.69681190	      3.76618354	    -22.23415615	     12.32608898	      3.78882657	     20.90700871	     -6.43034937	     -0.32831166	     -8.09939458
      0.60866667	     -1.18253992	      0.48016653	      8.01190976	     -0.65974768	      0.88135863	      0.30248287	     28.45682632	      0.73300384	     -7.06517180	    -17.49887113	      0.77902734	     -5.90240689	      9.52120630	    -15.36334575	     -0.83369565	      3.56050105	    -23.51816039	     11.71592301	      3.81641900	     21.00063577	     -6.33841945	     -0.14864214	     -7.91023354
      0.61283333	     -1.18922154	      0.39947318	      7.94819145	     -0.65355011	      0.88099866	      0.30300730	     28.64971984	      0.89912257	     -6.94368647	    -18.61701873	      0.60410672	     -6.18871614	      9.49791151	    -15.03559230	     -0.98162551	      3.31350218	    -24.87873418	     11.12801714	      3.88347525	     21.22798189	     -6.25548478	      0.01735018	     -7.68993852
      0.61700000	     -1.13161260	      0.25676504	      7.86779917	     -0.64725690	      0.88079064	      0.30357420	     28.73576047	      1.14398205	     -6.85949502	    -19.65893101	      0.49490438	     -6.35606194	      9.22564325	    -14.75775954	     -1.22657261	      2.94851036	    -26.24624483	     10.38536005	      4.03563667	     23.86760250	     -6.22845848	      0.29320324	     -7.29734775
      0.62116667	     -1.14800685	      0.20323475	      7.81938303	     -0.64107886	      0.88054554	      0.30407626	     28.92274265	      1.26728628	     -6.76337321	    -20.77540683	      0.49869528	     -6.55763302	      9.21369801	    -14.37123214	     -1.33631273	      2.80325459	    -27.65487544	      9.55868646	      3.90764188	     23.99473044	     -6.14190394	      0.42148708	     -7.35543852
      0.62533333	     -1.12634943	      0.10958878	      7.76509943	     -0.63485891	      0.88039133	      0.30459192	     29.04384000	      1.43234808	     -6.71991731	    -21.84020812	      0.55902997	     -6.62783918	      9.19641621	    -13.98541471	     -1.51410647	      2.56069578	    -29.11745645	      8.70387379	      3.89238825	     24.16128383	     -6.08682554	      0.61512211	     -7.23284195
      0.62950000	     -1.09297625	      0.00572819	      7.71574820	     -0.62863848	      0.88029816	      0.30512141	     29.13428269	      1.60394625	     -6.70758743	    -22.87567073	      0.68589277	     -6.65213482	      9.16959285	    -13.57857843	     -1.71310135	      2.31781244	    -30.62006827	      7.81647415	      3.87164552	     24.38162360	     -6.04531396	      0.81873575	     -7.09783003
      0.63366667	     -1.04335695	     -0.10663855	      7.67250788	     -0.62242494	      0.88027290	      0.30565178	     29.18309232	      1.78191168	     -6.72018173	    -23.86811347	      0.87448424	     -6.63096299	      9.13410467	    -13.15364944	     -1.93508994	      2.05547380	    -32.16282606	      6.85345846	      3.84479878	     24.64150615	     -6.02080579	      1.03507817	     -6.97516341
      0.63783333	     -0.94377077	     -0.25194858	      7.64238199	     -0.61618220	      0.88039937	      0.30616951	     29.12941770	      1.99889364	     -6.74760898	    -24.76801072	      1.11354778	     -6.63329285	      9.11822091	    -12.76278159	     -2.20479073	      1.81491981	    -33.70147408	      5.80581082	      3.76578856	     24.77162908	     -6.05394295	      1.32071415	     -6.89954820
      0.64200000	     -0.89032821	     -0.36385244	      7.61066360	     -0.61001444	      0.88044959	      0.30670511	     29.13619775	      2.16475798	     -6.81467787	    -25.69944213	      1.45319501	     -6.50812569	      8.29268226	    -12.26903221	     -2.44853852	      1.53297910	    -35.31200401	      4.73858558	      3.63714757	     28.96618231	     -6.03437305	      1.52183711	     -6.79557571
      0.64616667	     -0.78625502	     -0.51245829	      7.58762115	     -0.60383781	      0.88063973	      0.30724514	     29.03139233	      2.37490283	     -6.90291125	    -26.50834600	      1.77074202	     -6.38954605	      8.30475934	    -11.80229190	     -2.75224017	      1.24265072	    -36.94172395	      3.64895453	      3.58827196	     28.96922597	     -6.07840018	      1.77658005	     -6.71336488
